<?xml version="1.0" encoding="iso-8859-1"?>
<!-- Uploaded to: SVG Repo, www.svgrepo.com, Generator: SVG Repo Mixer Tools -->
<svg version="1.1" id="Layer_1" xmlns="http://www.w3.org/2000/svg" xmlns:xlink="http://www.w3.org/1999/xlink" 
	 viewBox="0 0 512 512" xml:space="preserve">
<rect x="184.165" y="434.489" style="fill:#6E5B3F;" width="143.673" height="65.714"/>
<polygon style="fill:#DAEDE2;" points="256.001,270.499 327.838,270.499 327.838,434.489 184.165,434.489 184.165,270.499 "/>
<path style="fill:#6E5B3F;" d="M327.838,238.799v31.701h-71.837h-71.837v-31.701c0-9.261,1.781-18.346,5.156-26.805
	c3.374-8.447,8.329-16.257,14.712-22.982c12.753-13.438,19.867-31.264,19.867-49.798V54.211h64.204v85.003
	c0,9.261,1.781,18.357,5.156,26.816c3.374,8.447,8.329,16.257,14.712,22.982C320.724,202.45,327.838,220.276,327.838,238.799z"/>
<rect x="223.899" y="11.798" style="fill:#DBB67E;" width="64.204" height="42.413"/>
<path d="M316.527,180.892c-5.304-5.589-9.446-12.061-12.311-19.232c-2.864-7.181-4.317-14.733-4.317-22.446V66.009h14.311
	c6.516,0,11.798-5.282,11.798-11.798s-5.282-11.798-11.798-11.798h-14.31V11.798C299.901,5.282,294.619,0,288.103,0h-64.204
	c-6.516,0-11.798,5.282-11.798,11.798v30.615h-14.311c-6.516,0-11.798,5.282-11.798,11.798s5.282,11.798,11.798,11.798h14.311
	v73.205c0,15.579-5.905,30.379-16.627,41.677c-7.374,7.768-13.13,16.76-17.114,26.733c-3.978,9.974-5.996,20.463-5.996,31.176
	v31.701v163.989v65.714c0,6.516,5.282,11.798,11.798,11.798h143.673c6.516,0,11.798-5.282,11.798-11.798v-65.714V270.499v-31.701
	C339.636,217.157,331.429,196.591,316.527,180.892z M235.697,23.596h40.608v18.817h-40.608V23.596z M316.04,488.404H195.962v-42.118
	H316.04V488.404z M316.04,422.691H195.962V282.297h48.241v46.259c0,6.516,5.282,11.798,11.798,11.798s11.798-5.282,11.798-11.798
	v-46.259h48.241V422.691z M316.04,258.702H195.962v-19.903c0-7.705,1.452-15.253,4.314-22.429
	c2.867-7.177,7.009-13.648,12.313-19.236c14.901-15.702,23.107-36.271,23.107-57.92V66.009h40.608v73.205
	c0,10.721,2.016,21.214,5.997,31.193c3.982,9.967,9.738,18.959,17.11,26.728c10.722,11.298,16.628,26.094,16.628,41.664V258.702z"/>
<path d="M256.001,350.039c-6.516,0-11.798,5.282-11.798,11.798v4.078c0,6.516,5.282,11.798,11.798,11.798
	s11.798-5.282,11.798-11.798v-4.078C267.799,355.321,262.517,350.039,256.001,350.039z"/>
</svg>