<?xml version="1.0" encoding="utf-8"?>
<!-- Uploaded to: SVG Repo, www.svgrepo.com, Generator: SVG Repo Mixer Tools -->
<svg version="1.1" id="Uploaded to svgrepo.com" xmlns="http://www.w3.org/2000/svg" xmlns:xlink="http://www.w3.org/1999/xlink" 
	 width="800px" height="800px" viewBox="0 0 32 32" xml:space="preserve">
<style type="text/css">
	.isometric_een{fill:#F8F7C5;}
	.isometric_drie{fill:#F2D76C;}
	.isometric_vier{fill:#AD9A74;}
	.isometric_zeven{fill:#FF7344;}
	.isometric_tien{fill:#7BD6C4;}
	.isometric_twaalf{fill:#569080;}
	.isometric_dertien{fill:#225B49;}
	.st0{fill:#F28103;}
	.st1{fill:#72C0AB;}
	.st2{fill:#BE1E2D;}
	.st3{fill:#F05A28;}
	.st4{fill:#F29227;}
	.st5{fill:#F5DF89;}
	.st6{fill:none;}
	.st7{fill:#7BD6C4;}
	.st8{fill:#569080;}
</style>
<g>
	<polygon class="isometric_twaalf" points="9.714,4.087 6,6.23 22,15.619 22,27.844 26,25.677 26,13.476 	"/>
	<polygon class="isometric_vier" points="12.861,6.644 16.614,8.811 15.993,9.16 12.24,6.994 	"/>
	<polygon class="isometric_tien" points="6,6.23 6,18.431 22,27.844 22,15.619 	"/>
	<path class="isometric_dertien" d="M10.352,6.608C9.837,6.905,8.999,6.903,8.481,6.604C7.963,6.305,7.96,5.822,8.475,5.524
		c0.515-0.297,1.352-0.296,1.871,0.003C10.864,5.827,10.867,6.31,10.352,6.608z M16.614,8.811l-0.622,0.35l0,2.934l3.125-1.88
		L16.614,8.811z M14.131,11.889c-1.083-0.625-2.068-0.706-2.819-0.34c-0.412,0.201-2.056,1.068-2.466,1.343
		c-0.739,0.495-1.194,1.483-1.194,2.859c0,2.832,1.924,6.246,4.288,7.611c1.111,0.642,2.118,0.709,2.876,0.311
		c0.387-0.204,2.024-1.046,2.44-1.336c0.72-0.502,1.162-1.481,1.162-2.837C18.419,16.669,16.495,13.254,14.131,11.889z"/>
	<path class="isometric_zeven" d="M9.726,6.246C9.554,6.346,9.275,6.345,9.103,6.245c-0.173-0.1-0.174-0.261-0.002-0.36
		c0.172-0.099,0.451-0.099,0.624,0.001S9.898,6.147,9.726,6.246z M20.386,15.239c-0.345-0.199-0.625-0.04-0.625,0.357
		s0.28,0.879,0.625,1.079s0.625,0.04,0.625-0.357C21.011,15.921,20.731,15.438,20.386,15.239z"/>
	<polygon class="isometric_drie" points="15.992,12.094 15.993,9.16 12.24,6.994 12.24,9.892 	"/>
	<path class="isometric_twaalf" d="M11.941,13.085c-2.364-1.365-4.288-0.172-4.288,2.66c0,2.832,1.924,6.246,4.288,7.611
		c2.364,1.365,4.288,0.172,4.288-2.66C16.229,17.864,14.305,14.45,11.941,13.085z M9.127,10.174L6.625,8.73V7.294l2.502,1.444
		V10.174z"/>
	<path class="isometric_een" d="M15.068,20.026c0,1.982-1.4,2.78-3.127,1.783c-1.727-0.997-3.127-3.412-3.127-5.394
		s1.4-2.78,3.127-1.783S15.068,18.044,15.068,20.026z"/>
</g>
</svg>