<?xml version="1.0" encoding="iso-8859-1"?>
<!-- Uploaded to: SVG Repo, www.svgrepo.com, Generator: SVG Repo Mixer Tools -->
<svg fill="#000000" height="800px" width="800px" version="1.1" id="Layer_1" xmlns="http://www.w3.org/2000/svg" xmlns:xlink="http://www.w3.org/1999/xlink" 
	 viewBox="0 0 512 512" xml:space="preserve">
<g>
	<g>
		<path d="M48.784,284.404L30.188,138.436L0,142.282l20.167,158.304v79.418v15.216v44.386h30.432v-44.386h74.298v44.386h30.432
			v-44.386v-15.216v-95.599H48.784z M124.897,364.787H50.599v-49.952h74.298V364.787z"/>
	</g>
</g>
<g>
	<g>
		<path d="M481.812,138.436l-18.595,145.968H356.672v95.599v15.216v44.386h30.432v-44.386h74.298v44.386h30.432v-44.386v-15.216
			v-79.418L512,142.282L481.812,138.436z M461.401,364.787h-74.298v-49.952h74.298V364.787z"/>
	</g>
</g>
<g>
	<g>
		<path d="M424.252,231.656v-30.432h-48.554v-26.881H389.9v-30.432h-58.835v30.432h14.201v26.881h-47.368h-2.844v-52.537
			c0-16.14-9.842-30.023-23.838-35.967V72.395h-30.432v40.324c-13.997,5.943-23.838,19.827-23.838,35.967v52.537h-2.844h-47.368
			v-26.881h14.201v-30.432h-58.835v30.432h14.201v26.881H87.748v30.432h126.354v55.679c-16.646,12.887-26.682,32.954-26.682,54.272
			s10.035,41.386,26.682,54.272v13.293h-39.341v30.432h39.341h83.796h39.341v-30.432h-39.341v-13.293
			c16.646-12.887,26.682-32.955,26.682-54.272c0-21.317-10.035-41.386-26.682-54.272v-55.679H424.252z M256,140.063
			c4.754,0,8.622,3.868,8.622,8.622v52.537h-17.245v-52.537h0C247.378,143.931,251.246,140.063,256,140.063z M275.061,374.643
			l-7.595,4.395v30.133h-22.932v-30.133l-7.595-4.395c-11.773-6.814-19.087-19.473-19.087-33.038
			c0-13.564,7.314-26.224,19.087-33.038l7.595-4.395v-72.519h22.932v72.519l7.595,4.395c11.773,6.814,19.087,19.473,19.087,33.038
			C294.148,355.17,286.834,367.829,275.061,374.643z"/>
	</g>
</g>
</svg>