<?xml version="1.0" encoding="iso-8859-1"?>
<!-- Uploaded to: SVG Repo, www.svgrepo.com, Generator: SVG Repo Mixer Tools -->
<!DOCTYPE svg PUBLIC "-//W3C//DTD SVG 1.1//EN" "http://www.w3.org/Graphics/SVG/1.1/DTD/svg11.dtd">
<svg fill="#000000" version="1.1" id="Capa_1" xmlns="http://www.w3.org/2000/svg" xmlns:xlink="http://www.w3.org/1999/xlink" 
	 width="800px" height="800px" viewBox="0 0 192.563 192.564"
	 xml:space="preserve">
<g>
	<g>
		<path d="M139.811,50.838c-3.703-2.929-9.201-2.959-13.671-2.967c-8.043-0.014-15.682,0.623-23.77,0.151
			c-20.927-1.22-42.187-0.808-63.016,1.498c-10.126,1.121-24.147-4.622-33.485-0.188c-7.666,3.64-5.762,16.326-5.387,23.08
			c0.604,10.891,2.837,21.774,2.532,32.696c-0.271,9.715-3.466,24.397,2.392,33.09c0.123,1.544,1.19,3.048,2.993,2.921
			c1.228-0.086,2.456-0.172,3.685-0.258c0.493-0.035,0.913-0.165,1.272-0.355c13.864-1.652,27.787-2.021,41.717-1.52
			c0.017,4.324-0.236,8.608-0.515,12.913c-4.335,0.165-8.668,0.398-12.994,0.724c-1.261,0.095-2.79,0.867-3,2.284
			c-0.581,3.917-0.107,7.364,0.738,11.235c0.306,1.403,1.665,2.199,2.999,2.282c14.948,0.94,34.952,6.436,50.217,1.259
			c7.061-1.024,12.886-4.232,11.865-12.477c-0.157-1.265-0.823-2.787-2.289-3.007c-3.155-0.474-6.32-0.851-9.487-1.185
			c0.087-2.955,0.263-6.121,0.763-8.247c0.123-0.258,0.217-0.532,0.256-0.827c0.069-0.261,0.092-0.523,0.07-0.789
			c-0.064-1.657-1.182-2.553-2.437-2.671c-0.025-0.135-0.053-0.271-0.079-0.406c14.932-0.257,29.875-0.878,44.633,1.713
			c1.548,0.272,3.516-0.393,3.835-2.178c3.415-19.073,1.09-38.356,2.32-57.58C142.569,72.649,148.9,58.028,139.811,50.838z
			 M7.674,83.533c0.125-0.202,0.24-0.419,0.325-0.681c0.039,1.554,0.08,3.107,0.112,4.661C7.957,86.183,7.82,84.859,7.674,83.533z
			 M78.106,53.682c-2.853,0.139-5.701,0.27-8.534,0.378c-3.868,0.148-7.77,0.16-11.689,0.112
			C64.613,53.818,71.363,53.679,78.106,53.682z M64.953,140.967c-0.145-0.501-0.294-1.003-0.461-1.503
			c0.355,0.023,0.71,0.044,1.065,0.068C65.345,140.006,65.146,140.486,64.953,140.967z M132.23,77.085
			c-1.418,16.279-0.938,33.144-0.913,49.556c-15.988-0.975-31.838,1.396-47.736,2.994c-10.344,1.04-20.15,0.537-30.472-0.101
			c-9.989-0.618-20.015-1.164-30.025-0.819c-3.375,0.116-8.212,0.099-11.878,1.626c0.248-0.297,0.453-0.671,0.586-1.145
			c5.992-21.349,2.323-45.999,1.964-68.105c16.16-2.314,32.909,0.124,49.183-0.547c16.446-0.679,33.003-0.384,49.422-1.329
			c5.9-0.34,11.919-1.219,17.805-0.265C135.366,59.795,132.521,73.753,132.23,77.085z"/>
		<path d="M191.985,90.151c-0.653-21.956,0.527-43.912-2.967-65.696c-0.215-1.344-1.729-2.28-2.996-2.281
			c-18.937-0.003-37.856-0.104-56.751-1.478c-1.695-0.124-3.109,1.508-3.111,3.111c-0.007,6.166-0.103,12.288-0.737,18.426
			c-0.174,1.676,1.547,3.133,3.111,3.112c8.156-0.106,18.26-2.967,20.581,7.297c2.285,10.101,0.311,21.153-0.078,31.369
			c-0.629,16.594,3.471,33.019,3.107,49.53c-0.774,1.083-0.929,2.57-0.154,3.505c-0.173,2.742-0.476,5.488-0.973,8.237
			c-8.097,0.089-16.071,0.476-23.908,2.801c-2.109,0.626-2.252,2.798-1.205,4.075c-0.892,1.358-0.842,3.205,1.059,4.049
			c-1.825-0.81-0.806,4.171-0.803,6.159c0.003,1.719,1.413,3.077,3.109,3.109c19.732,0.376,39.281-5.311,58.874-0.853
			c2.002,0.456,3.869-0.916,3.931-2.994C192.784,137.796,192.693,113.985,191.985,90.151z M185.963,99.765
			c0.032,1.681,0.068,3.362,0.096,5.044c-0.273-0.062-0.564-0.102-0.891-0.085c-4.06,0.198-8.209,0.958-12.266,0.5
			c-0.004-2.032-0.008-4.065-0.011-6.098c3.928,0.035,7.819,0.183,11.743,0.744C185.134,99.943,185.574,99.891,185.963,99.765z
			 M174.183,46.472c0.122,2.753,0.259,5.502,0.146,8.25c-6.014,0.184-11.984,0.737-17.929,1.69
			c-0.165-2.403-0.507-4.741-1.127-6.872C161.633,49.052,167.867,47.405,174.183,46.472z M160.01,82.866
			c-1.072,0.035-2.813-0.007-4.334,0.316c-0.032-1.512-0.037-3.021-0.019-4.529c0.335-0.155,0.667-0.318,0.996-0.491
			c6.654-0.821,13.383-1.916,20.013-0.83c0.218,1.759,0.253,3.547,0.078,5.312C171.165,82.66,165.585,82.683,160.01,82.866z
			 M181.098,119.64c-2.889,0.479-6.088,0.675-9.086,0.312c-0.183-2.912-0.522-5.813-0.855-8.715
			c4.655,0.679,9.298-0.039,14.012-0.271c0.36-0.018,0.678-0.099,0.974-0.205c0.036,2.628,0.058,5.254,0.082,7.88
			C184.508,118.667,182.769,119.363,181.098,119.64z"/>
	</g>
</g>
</svg>