<?xml version="1.0" encoding="iso-8859-1"?>
<!-- Uploaded to: SVG Repo, www.svgrepo.com, Generator: SVG Repo Mixer Tools -->
<svg height="800px" width="800px" version="1.1" id="Capa_1" xmlns="http://www.w3.org/2000/svg" xmlns:xlink="http://www.w3.org/1999/xlink" 
	 viewBox="0 0 526.839 526.839" xml:space="preserve">
<g>
	<polygon style="fill:#010002;" points="58.678,211.651 41.273,211.651 41.273,148.008 29.339,148.008 29.339,211.651 
		11.934,211.651 11.934,148.008 0,148.008 0,223.585 29.339,223.585 29.339,370.871 41.273,370.871 41.273,223.585 70.612,223.585 
		70.612,148.008 58.678,148.008 	"/>
	<path style="fill:#010002;" d="M475.858,151.708v-3.699h-11.934v222.863h11.934V265.406h50.981L475.858,151.708z M475.858,180.868
		l32.555,72.605h-32.555V180.868z"/>
	<path style="fill:#010002;" d="M259.064,78.446c-101.992,0-184.973,82.981-184.973,184.973s82.981,184.973,184.973,184.973
		c101.998,0,184.973-82.975,184.973-184.973S361.061,78.446,259.064,78.446z"/>
</g>
</svg>