<?xml version="1.0" ?>
<!-- Uploaded to: SVG Repo, www.svgrepo.com, Generator: SVG Repo Mixer Tools -->
<svg width="800px" height="800px" viewBox="0 0 32 32" xmlns="http://www.w3.org/2000/svg">
<g id="a"/>
<g id="b">
<path d="M4,16H28c1.1038,0,2,.8962,2,2v6H2v-6c0-1.1038,.8962-2,2-2Z" style="fill:#cfb1fc;"/>
<path d="M29,15.1843v-7.1843c0-.5527-.4473-1-1-1s-1,.4473-1,1v.4091c-1.4614-.0583-4.3062-.3795-6.25-1.9071-2.0146-1.583-4.668-1.5166-4.7158-1.5039-.1064-.0107-2.7695-.0791-4.7842,1.5039-1.9436,1.5275-4.7886,1.8492-6.25,1.9075v-.4095c0-.5527-.4473-1-1-1s-1,.4473-1,1v7.1843c-1.1615,.4141-2,1.5138-2,2.8157v6c0,.5527,.4473,1,1,1h1v1c0,.5527,.4473,1,1,1s1-.4473,1-1v-1H27v1c0,.5527,.4473,1,1,1s1-.4473,1-1v-1h1c.5527,0,1-.4473,1-1v-6c0-1.3019-.8385-2.4016-2-2.8157ZM12.4863,8.0742c1.4248-1.1191,3.457-1.0898,3.5449-1.0771,.0137-.0098,2.0527-.0449,3.4824,1.0771,2.4327,1.9109,5.7963,2.2833,7.4863,2.3403v4.5855h-4v-1c0-1.1025-.8975-2-2-2H11c-1.1025,0-2,.8975-2,2v1H5v-4.5875c1.6912-.0582,5.0558-.4282,7.4863-2.3383Zm8.5137,6.9258H11v-1h10v1Zm8,8H3v-5c0-.5518,.4482-1,1-1H28c.5518,0,1,.4482,1,1v5Z" style="fill:#96c;"/>
</g>
</svg>