<?xml version="1.0" encoding="utf-8"?>
<!-- Uploaded to: SVG Repo, www.svgrepo.com, Generator: SVG Repo Mixer Tools -->
<svg width="800px" height="800px" viewBox="-2.95 0 57.855 57.855" xmlns="http://www.w3.org/2000/svg">
  <g id="Group_140" data-name="Group 140" transform="translate(-471.701 -318.103)">
    <g id="Group_137" data-name="Group 137">
      <path id="Path_495" data-name="Path 495" d="M512.8,369.807V321.389a1.99,1.99,0,0,0-1.99-1.99H474.987a1.989,1.989,0,0,0-1.99,1.99v46.428a1.989,1.989,0,0,0,1.99,1.99Z" fill="#ffffff" stroke="#ff0050" stroke-linecap="round" stroke-linejoin="round" stroke-width="2.592"/>
    </g>
    <path id="Path_496" data-name="Path 496" d="M503.984,338.206h-7.325v-7.324H489.14v7.324h-7.325v7.519h7.325v7.325h7.518v-7.325h7.325Z" fill="#ffffff" stroke="#ff0050" stroke-linecap="round" stroke-linejoin="round" stroke-width="1.984"/>
    <g id="Group_139" data-name="Group 139">
      <path id="Path_497" data-name="Path 497" d="M512.976,352.359" fill="#ffffff" stroke="#ff0050" stroke-miterlimit="10" stroke-width="2.592"/>
      <path id="Path_498" data-name="Path 498" d="M512.976,352.359" fill="#ffffff" stroke="#ff0050" stroke-miterlimit="10" stroke-width="2.592"/>
      <g id="Group_138" data-name="Group 138">
        <path id="Path_499" data-name="Path 499" d="M508.959,362.908v-3.146a4.018,4.018,0,1,1,8.035,0v3.146m3.186,0v-3.146a7.2,7.2,0,1,0-14.407,0v3.146" fill="#ffffff" stroke="#ff0050" stroke-linecap="round" stroke-linejoin="round" stroke-width="2.074"/>
        <path id="Path_500" data-name="Path 500" d="M504.24,363.035h17.473a.911.911,0,0,1,.911.911V374.01a.911.911,0,0,1-.911.911H504.24a.911.911,0,0,1-.911-.911V363.946A.911.911,0,0,1,504.24,363.035Z" fill="#ffffff" stroke="#ff0050" stroke-linecap="round" stroke-linejoin="round" stroke-width="2.074"/>
      </g>
    </g>
  </g>
</svg>