<?xml version="1.0" encoding="iso-8859-1"?>
<!-- Uploaded to: SVG Repo, www.svgrepo.com, Generator: SVG Repo Mixer Tools -->
<svg version="1.1" id="Layer_1" xmlns="http://www.w3.org/2000/svg" xmlns:xlink="http://www.w3.org/1999/xlink" 
	 viewBox="0 0 509.949 509.949" xml:space="preserve">
<g>
	<rect x="7.839" y="250.986" style="fill:#AE556E;" width="494.272" height="31.887"/>
	<rect x="7.839" y="43.24" style="fill:#AE556E;" width="494.272" height="37.227"/>
</g>
<rect x="15.811" y="75.598" style="fill:#EBB665;" width="486.297" height="175.387"/>
<g>
	<path style="fill:#222221;" d="M509.949,290.715V35.874H0v254.841h87.693v167.682H71.615v15.678h47.833v-15.678h-16.078V290.715
		h303.206v167.682H390.5v15.678h47.833v-15.678h-16.079V290.715H509.949z M15.678,51.552h478.593v223.485H15.678V51.552z"/>
	<path style="fill:#222221;" d="M199.036,203.023h-47.568v-79.455h47.568V203.023z M167.148,187.344h16.211v-48.099h-16.211V187.344
		z"/>
	<polygon style="fill:#222221;" points="103.637,155.457 87.426,155.457 87.426,123.435 71.748,123.435 71.748,203.155 
		87.426,203.155 87.426,171.135 103.637,171.135 103.637,203.155 119.316,203.155 119.316,123.435 103.637,123.435 	"/>
	<polygon style="fill:#222221;" points="231.057,139.247 247.135,139.247 247.135,203.155 262.813,203.155 262.813,139.247 
		278.891,139.247 278.891,123.569 231.057,123.569 	"/>
	<polygon style="fill:#222221;" points="358.611,139.247 358.611,123.569 310.911,123.569 310.911,203.023 358.611,203.023 
		358.611,187.344 326.589,187.344 326.589,171.135 358.611,171.135 358.611,155.457 326.589,155.457 326.589,139.247 	"/>
	<polygon style="fill:#222221;" points="438.333,203.023 390.634,203.023 390.634,123.435 406.312,123.435 406.312,187.344 
		438.333,187.344 	"/>
</g>
<g>
	<rect x="454.276" y="155.453" style="fill:#FFFFFF;" width="23.916" height="15.678"/>
	<rect x="31.756" y="155.453" style="fill:#FFFFFF;" width="23.917" height="15.678"/>
</g>
<g>
	<rect x="31.756" y="243.146" style="fill:#222221;" width="446.433" height="15.678"/>
	<rect x="31.756" y="67.759" style="fill:#222221;" width="446.433" height="15.678"/>
</g>
</svg>