<?xml version="1.0" encoding="iso-8859-1"?>
<!-- Uploaded to: SVG Repo, www.svgrepo.com, Generator: SVG Repo Mixer Tools -->
<svg fill="#000000" height="800px" width="800px" version="1.1" id="Layer_1" xmlns="http://www.w3.org/2000/svg" xmlns:xlink="http://www.w3.org/1999/xlink" 
	 viewBox="0 0 512 512" xml:space="preserve">
<g>
	<g>
		<path d="M494.839,271.685l-47.195-47.19c-5.733-5.744-14.745-6.527-21.375-1.875l-58.657,41.052v-13.237
			c0-21.737-14-40.096-33.391-47.01V83.478C334.22,37.446,296.775,0,250.741,0H117.176C71.144,0,33.809,37.446,33.809,83.478
			v119.946c-19.391,6.914-33.503,25.273-33.503,47.01v211.478C0.307,489.532,22.775,512,50.394,512h267.13
			c17.293,0,33.097-8.696,42.282-23.266c0.03-0.05,0.07-0.121,0.104-0.176L496.714,293.06
			C501.361,286.424,500.567,277.413,494.839,271.685z M100.625,428.522c0,9.223-7.584,16.696-16.807,16.696
			s-16.696-7.473-16.696-16.696V283.826c0-9.223,7.473-16.696,16.696-16.696s16.807,7.473,16.807,16.696V428.522z M69.921,200.348
			c2.456-6.979,6.483-13.364,11.918-18.75c9.36-9.44,21.908-14.641,35.337-14.641c64.205,0,69.36,0,133.565,0
			c21.767,0,40.337,13.956,47.229,33.391H69.921z M300.94,150.419c-13.971-10.529-31.393-16.854-50.198-16.854h-16.696V116.87
			c0-27.619-22.468-50.087-50.087-50.087c-27.619,0-49.976,22.468-49.976,50.087v16.696h-16.807
			c-18.419,0-35.811,5.97-50.087,16.792V83.478c0-27.619,22.468-50.087,50.087-50.087h133.565c27.619,0,50.198,22.468,50.198,50.087
			V150.419z M367.611,419.315V304.43l66.326-46.424l27.385,27.385L367.611,419.315z"/>
	</g>
</g>
<g>
	<g>
		<path d="M490.236,103.669c-12.786-11.393-12.81-28.965,0-40.38c7.294-6.5,7.935-17.675,1.435-24.968
			c-6.5-7.288-17.691-7.94-24.968-1.435c-28.62,25.513-28.6,67.689,0,93.185c12.786,11.393,12.81,28.965,0,40.38
			c-7.294,6.5-7.935,17.674-1.435,24.968c6.515,7.305,17.693,7.923,24.968,1.435C518.856,171.341,518.836,129.165,490.236,103.669z"
			/>
	</g>
</g>
<g>
	<g>
		<path d="M412.323,103.669c-12.786-11.393-12.81-28.965,0-40.38c7.294-6.5,7.935-17.675,1.435-24.968
			c-6.511-7.288-17.68-7.94-24.968-1.435c-28.62,25.513-28.6,67.689,0,93.185c12.786,11.393,12.81,28.965,0,40.38
			c-7.294,6.5-7.935,17.674-1.435,24.968c6.515,7.305,17.693,7.923,24.968,1.435C440.943,171.341,440.923,129.165,412.323,103.669z"
			/>
	</g>
</g>
</svg>