<?xml version="1.0" encoding="iso-8859-1"?>
<!-- Uploaded to: SVG Repo, www.svgrepo.com, Generator: SVG Repo Mixer Tools -->
<svg height="800px" width="800px" version="1.1" id="Layer_1" xmlns="http://www.w3.org/2000/svg" xmlns:xlink="http://www.w3.org/1999/xlink" 
	 viewBox="0 0 511.998 511.998" xml:space="preserve">
<path style="fill:#F78A68;" d="M476.517,280.016v83.825h-68.613v-68.945c0-6.387-5.178-11.565-11.576-11.565h-26.766
	c-6.398,0-11.576,5.178-11.576,11.565v68.945h-61.694v-34.85v-28.64v-1.663v-28.962l84.48-77.217L476.517,280.016z"/>
<path style="fill:#6E5B3F;" d="M407.904,294.896v68.945h-49.918v-68.945c0-6.387,5.178-11.565,11.576-11.565h26.766
	C402.726,283.331,407.904,288.509,407.904,294.896z"/>
<polygon style="fill:#A3875E;" points="260.755,159.977 260.755,236.905 215.716,195.314 215.716,159.977 "/>
<path style="fill:#DAEDE2;" d="M189.149,253.537c10.534,0,19.082,8.549,19.082,19.094v39.629h-43.487v-58.722H189.149z"/>
<path style="fill:#F78A68;" d="M164.744,312.26h43.487v-39.629c0-10.545-8.549-19.094-19.082-19.094h-24.405h-0.31h-24.405
	c-10.545,0-19.082,8.549-19.082,19.094v39.629h43.487H164.744z M296.292,328.991v34.85H44.007V258.305l120.638-110.148
	l51.071,47.157l45.039,41.591l35.537,32.821v28.962v1.663V328.991z"/>
<path style="fill:#DAEDE2;" d="M164.434,253.537v58.722h-43.487v-39.629c0-10.545,8.538-19.094,19.082-19.094L164.434,253.537
	L164.434,253.537z"/>
<path d="M164.434,323.348h-43.487c-6.123,0-11.088-4.965-11.088-11.088v-39.629c0-16.642,13.534-30.182,30.17-30.182h24.405
	c6.123,0,11.088,4.965,11.088,11.088c0,6.123-4.965,11.088-11.088,11.088h-24.405c-4.409,0-7.994,3.59-7.994,8.006v28.541h32.399
	c6.123,0,11.088,4.965,11.088,11.088S170.556,323.348,164.434,323.348z"/>
<path d="M208.231,323.348h-43.487c-6.123,0-11.088-4.965-11.088-11.088s4.965-11.088,11.088-11.088h32.399v-28.541
	c0-4.414-3.586-8.006-7.994-8.006h-24.405c-6.123,0-11.088-4.965-11.088-11.088c0-6.123,4.965-11.088,11.088-11.088h24.405
	c16.636,0,30.17,13.54,30.17,30.182v39.629C219.319,318.382,214.354,323.348,208.231,323.348z"/>
<path d="M164.744,323.348h-0.31c-6.123,0-11.088-4.965-11.088-11.088v-58.722c0-6.123,4.965-11.088,11.088-11.088h0.31
	c6.123,0,11.088,4.965,11.088,11.088v58.722C175.832,318.382,170.867,323.348,164.744,323.348z"/>
<path d="M508.379,294.052l-24.381-22.22l-0.001-0.001l-95.745-87.507c-4.236-3.87-10.725-3.871-14.961,0.001l-76.96,70.342
	l-24.488-22.616v-72.074c0-6.123-4.965-11.088-11.088-11.088h-45.04c-6.123,0-11.088,4.965-11.088,11.088v10.007l-32.46-29.973
	c-4.23-3.905-10.746-3.924-14.999-0.042L36.531,250.117c-0.001,0.001-0.002,0.002-0.003,0.003c-0.002,0.002-0.004,0.003-0.007,0.006
	L3.602,280.252c-4.517,4.135-4.828,11.148-0.694,15.665c2.188,2.389,5.179,3.602,8.183,3.602c2.673,0,5.354-0.961,7.482-2.908
	l14.346-13.128v80.358c0,6.123,4.965,11.088,11.088,11.088h252.285h61.695h49.918h68.613c6.123,0,11.088-4.965,11.088-11.088
	v-58.718l5.837,5.319c2.127,1.938,4.8,2.893,7.466,2.893c3.01,0,6.011-1.22,8.198-3.619
	C513.23,305.19,512.904,298.177,508.379,294.052z M226.804,171.065h22.863v40.509l-22.863-21.114V171.065z M396.816,352.752h-27.742
	v-57.857c0-0.267,0.214-0.477,0.487-0.477h26.766c0.274,0,0.488,0.208,0.488,0.477v57.857H396.816z M465.429,352.752h-46.437
	v-57.857c0-12.491-10.168-22.653-22.664-22.653h-26.766c-12.497,0-22.663,10.162-22.663,22.653v57.857H307.38V328.99
	c0-6.123-4.965-11.088-11.088-11.088s-11.088,4.965-11.088,11.088v23.762H55.094v-89.557l109.509-99.986l43.59,40.249
	c0,0,45.028,41.581,45.038,41.592l35.537,32.821c2.031,1.854,4.743,2.926,7.497,2.933c2.741,0.007,5.482-1.047,7.509-2.895
	l76.998-70.379l84.657,77.372L465.429,352.752L465.429,352.752z"/>
<path d="M296.292,311.439c-6.123,0-11.088-4.965-11.088-11.088v-1.663c0-6.123,4.965-11.088,11.088-11.088
	s11.088,4.965,11.088,11.088v1.663C307.38,306.474,302.415,311.439,296.292,311.439z"/>
</svg>