<?xml version="1.0" encoding="iso-8859-1"?>
<!-- Uploaded to: SVG Repo, www.svgrepo.com, Generator: SVG Repo Mixer Tools -->
<svg fill="#000000" height="800px" width="800px" version="1.1" id="Layer_1" xmlns="http://www.w3.org/2000/svg" xmlns:xlink="http://www.w3.org/1999/xlink" 
	 viewBox="0 0 512 512" xml:space="preserve">
<g>
	<g>
		<path d="M377.017,477.962l-16.2-16.202c-4.081-4.079-10.696-4.079-14.778,0c-3.571,3.571-4.017,9.085-1.336,13.142H85.267
			c2.679-4.056,2.235-9.57-1.336-13.142c-4.081-4.079-10.696-4.079-14.778,0l-16.202,16.202c-1.959,1.96-3.06,4.617-3.06,7.388
			s1.101,5.429,3.062,7.388l16.202,16.2c2.04,2.041,4.714,3.06,7.387,3.06c2.675,0,5.349-1.021,7.388-3.062
			c3.571-3.571,4.017-9.083,1.338-13.139H344.7c-2.678,4.055-2.234,9.567,1.337,13.139c2.04,2.041,4.715,3.062,7.388,3.062
			s5.348-1.021,7.387-3.06l16.202-16.2c1.96-1.959,3.062-4.617,3.062-7.388S378.976,479.923,377.017,477.962z"/>
	</g>
</g>
<g>
	<g>
		<path d="M459.049,412.48c-3.573-3.57-9.085-4.017-13.142-1.336V35.376c1.739,1.149,3.745,1.724,5.752,1.724
			c2.674,0,5.348-1.021,7.388-3.06c4.08-4.08,4.08-10.696,0-14.777L442.847,3.061C440.888,1.101,438.23,0,435.459,0
			s-5.429,1.101-7.388,3.061l-16.201,16.202c-4.08,4.081-4.08,10.697,0,14.777c3.573,3.57,9.085,4.016,13.141,1.337v375.765
			c-4.056-2.679-9.567-2.233-13.14,1.336c-4.08,4.08-4.08,10.696,0,14.778l16.201,16.202c1.959,1.959,4.617,3.06,7.388,3.06
			s5.429-1.101,7.388-3.06l16.201-16.202C463.13,423.175,463.13,416.56,459.049,412.48z"/>
	</g>
</g>
<g>
	<g>
		<path d="M277.805,380.691h-4.678c-5.77,0-10.449,4.678-10.449,10.449c0,5.77,4.679,10.449,10.449,10.449h4.678
			c5.77,0,10.449-4.679,10.449-10.449C288.254,385.369,283.574,380.691,277.805,380.691z"/>
	</g>
</g>
<g>
	<g>
		<path d="M239.323,380.691h-87.157c-5.77,0-10.449,4.678-10.449,10.449c0,5.77,4.679,10.449,10.449,10.449h87.157
			c5.77,0,10.449-4.679,10.449-10.449C249.772,385.369,245.093,380.691,239.323,380.691z"/>
	</g>
</g>
<g>
	<g>
		<path d="M307.982,178.695c0-13.436-7.463-25.022-18.564-30.833c3.738-11.959,0.822-25.426-8.676-34.928
			c-6.57-6.567-15.303-10.185-24.59-10.185c-3.539,0-7.009,0.53-10.315,1.55c-5.804-11.123-17.4-18.601-30.852-18.601
			c-13.453,0-25.049,7.477-30.852,18.602c-3.306-1.022-6.777-1.551-10.315-1.551c-9.287,0-18.019,3.617-24.592,10.188
			c-9.497,9.499-12.412,22.966-8.674,34.925c-11.102,5.811-18.564,17.395-18.564,30.833c-0.001,13.44,7.461,25.024,18.563,30.833
			c-3.738,11.96-0.822,25.427,8.676,34.926c6.569,6.569,15.303,10.187,24.59,10.187c3.539,0,7.009-0.53,10.315-1.55
			c4.23,8.107,11.543,14.26,20.403,17.011v25.459c-15.132-17.004-37.158-27.745-61.655-27.745c-5.77,0-10.449,4.679-10.449,10.449
			c0,45.52,37.033,82.553,82.553,82.553c0.006,0,0.015,0,0.021,0c0.007,0,0.014-0.001,0.021-0.001
			c45.499-0.022,82.51-37.046,82.51-82.552c0-5.77-4.679-10.449-10.449-10.449c-24.495,0-46.521,10.735-61.653,27.737v-25.452
			c8.86-2.75,16.172-8.904,20.403-17.01c3.306,1.021,6.776,1.55,10.314,1.55c9.289,0,18.021-3.617,24.593-10.188
			c9.496-9.499,12.411-22.966,8.673-34.925C300.521,203.719,307.982,192.135,307.982,178.695z M154.41,289.795
			c24.767,4.706,44.339,24.277,49.045,49.045C178.689,334.133,159.117,314.562,154.41,289.795z M275.558,289.795
			c-4.705,24.767-24.276,44.339-49.043,49.045C231.22,314.072,250.791,294.501,275.558,289.795z M273.5,192.606
			c-4.118,0.114-7.784,2.637-9.362,6.443c-1.578,3.807-0.772,8.184,2.057,11.178c5.236,5.542,5.137,14.085-0.226,19.45
			c-2.624,2.623-6.11,4.067-9.816,4.067c-3.592,0-7.015-1.364-9.635-3.839c-2.995-2.83-7.373-3.636-11.177-2.058
			c-3.806,1.578-6.329,5.244-6.444,9.361c-0.212,7.619-6.323,13.587-13.911,13.587s-13.698-5.967-13.911-13.587
			c-0.115-4.117-2.638-7.783-6.444-9.36c-1.293-0.537-2.651-0.797-3.999-0.797c-2.621,0-5.2,0.985-7.177,2.853
			c-2.622,2.476-6.043,3.84-9.637,3.84c-3.706,0-7.191-1.444-9.814-4.066c-5.363-5.366-5.464-13.909-0.227-19.451
			c2.83-2.995,3.635-7.373,2.057-11.178c-1.578-3.806-5.244-6.329-9.362-6.443c-7.618-0.211-13.586-6.322-13.586-13.91
			c0-7.587,5.968-13.698,13.588-13.91c4.117-0.115,7.783-2.638,9.361-6.445c1.577-3.805,0.77-8.183-2.059-11.176
			c-5.237-5.542-5.137-14.085,0.227-19.449c2.623-2.623,6.108-4.067,9.815-4.067c3.592,0,7.015,1.365,9.636,3.84
			c2.995,2.83,7.371,3.635,11.177,2.058c3.805-1.578,6.329-5.244,6.444-9.362c0.212-7.618,6.323-13.587,13.911-13.587
			s13.698,5.968,13.911,13.587c0.115,4.118,2.638,7.784,6.445,9.362c3.803,1.578,8.182,0.771,11.176-2.059
			c2.621-2.475,6.042-3.839,9.636-3.839c3.706,0,7.192,1.444,9.813,4.064c5.364,5.367,5.465,13.911,0.229,19.452
			c-2.83,2.994-3.635,7.372-2.06,11.176c1.578,3.807,5.243,6.33,9.361,6.445c7.619,0.212,13.588,6.323,13.588,13.911
			C287.085,186.284,281.118,192.394,273.5,192.606z"/>
	</g>
</g>
<g>
	<g>
		<path d="M214.985,128.874c-27.541,0-49.949,22.406-49.949,49.946c0,27.54,22.408,49.946,49.949,49.946
			c27.54,0,49.947-22.406,49.947-49.946C264.932,151.28,242.527,128.874,214.985,128.874z M214.985,207.869
			c-16.018,0-29.051-13.031-29.051-29.048c0-16.017,13.033-29.048,29.051-29.048c16.017,0,29.049,13.031,29.049,29.048
			C244.034,194.838,231.002,207.869,214.985,207.869z"/>
	</g>
</g>
<g>
	<g>
		<path d="M369.63,0H60.34c-5.771,0-10.449,4.678-10.449,10.449V436.07c0,5.77,4.678,10.449,10.449,10.449h309.29
			c5.77,0,10.449-4.679,10.449-10.449V10.449C380.079,4.678,375.4,0,369.63,0z M359.181,425.621H70.789V20.898h288.392V425.621z"/>
	</g>
</g>
</svg>