<?xml version="1.0" encoding="iso-8859-1"?>
<!-- Uploaded to: SVG Repo, www.svgrepo.com, Generator: SVG Repo Mixer Tools -->
<svg height="800px" width="800px" version="1.1" id="Layer_1" xmlns="http://www.w3.org/2000/svg" xmlns:xlink="http://www.w3.org/1999/xlink" 
	 viewBox="0 0 512.432 512.432" xml:space="preserve">
<g transform="translate(1 1)">
	<path style="fill:#FFDD09;" d="M431.002,8.383L386.629,25.45c-20.48,5.12-40.96,7.68-61.44,7.68H185.242
		c-20.48,0-40.96-2.56-60.587-7.68L80.282,8.383C66.629,4.97,55.536,17.77,59.802,30.57l24.747,62.293
		c-22.187,100.693-22.187,209.067,0,324.267l-20.48,61.44c-5.12,11.947,5.12,25.6,17.92,23.04l50.347-8.533
		c7.68-1.707,15.36-2.56,22.187-3.413c15.36-2.56,29.867-4.267,45.227-4.267h109.227c15.36,0,29.867,1.707,45.227,4.267
		c6.827,1.707,14.507,2.56,22.187,3.413l50.347,8.533c12.8,2.56,23.04-11.093,17.92-23.04l-18.773-61.44
		c23.04-118.613,23.04-226.987,0-324.267l24.747-62.293C454.896,17.77,443.802,4.97,431.002,8.383"/>
	<g>
		<path style="fill:#1CD759;" d="M218.522,359.957c-37.547-1.707-66.56-33.28-64.853-70.827
			C190.362,290.837,219.376,322.41,218.522,359.957"/>
		<path style="fill:#1CD759;" d="M272.282,340.33c1.707-33.28,26.453-61.44,59.733-59.733
			C330.309,313.877,305.562,342.037,272.282,340.33"/>
	</g>
	<path style="fill:#FD9808;" d="M431.002,8.383l-8.533,3.413c5.12,4.267,6.827,11.947,4.267,19.627l-21.333,62.293
		c19.627,97.28,20.48,205.653,0,324.267l17.92,61.44c2.56,8.533-0.853,17.067-6.827,21.333l11.093,1.707
		c12.8,2.56,23.04-11.093,17.92-23.04l-19.627-61.44c23.04-118.613,23.04-226.987,0-324.267l24.747-62.293
		C454.896,18.623,443.802,4.97,431.002,8.383"/>
	<path style="fill:#FFFFFF;" d="M87.109,479.423l17.92-61.44c-19.627-115.2-19.627-223.573,0-324.267L83.696,31.423
		c-2.56-7.68,0-15.36,4.267-19.627l-8.533-3.413c-12.8-3.413-23.893,10.24-19.627,23.04l24.747,62.293
		c-22.187,100.693-22.187,209.067,0,324.267l-20.48,61.44c-5.12,11.947,5.12,25.6,17.92,23.04l11.093-1.707
		C87.962,496.49,84.549,487.957,87.109,479.423"/>
	<polygon style="fill:#54C9FD;" points="161.349,220.863 349.082,220.863 349.082,84.33 161.349,84.33 	"/>
	<polygon style="fill:#33A9F8;" points="323.482,220.863 349.082,220.863 349.082,84.33 323.482,84.33 	"/>
	<path d="M79.429,510.143c-7.68,0-14.507-3.413-19.627-9.387c-5.973-6.827-7.68-17.067-4.267-25.6l20.48-58.88
		c-22.187-113.493-22.187-221.867,0-323.413L52.976,33.13c-4.267-8.533-2.56-17.92,4.267-25.6c5.973-6.827,16.213-10.24,24.747-7.68
		h0.853l44.373,17.067c18.773,5.12,38.4,7.68,58.027,7.68h139.947c19.627,0,39.253-2.56,58.027-7.68L427.589-0.15h0.853
		c9.387-2.56,18.773,0.853,24.747,7.68c6.827,7.68,8.533,17.067,4.267,26.453l-23.04,59.733c22.187,97.28,22.187,205.653,0,323.413
		l19.627,59.733c3.413,8.533,1.707,17.92-4.267,25.6c-5.973,6.827-14.507,10.24-23.893,8.533l-50.347-8.533
		c-3.413-0.853-6.827-0.853-10.24-1.707c-4.267-0.853-8.533-0.853-11.947-1.707c-14.507-3.413-29.867-5.12-43.52-5.12H200.602
		c-13.653,0-29.013,1.707-43.52,4.267c-4.267,0.853-7.68,1.707-11.947,1.707c-3.413,0.853-6.827,0.853-10.24,1.707l-50.347,8.533
		C82.842,510.143,81.136,510.143,79.429,510.143z M75.162,16.063c-2.56,0-4.267,1.707-5.12,2.56c-2.56,2.56-3.413,5.973-1.707,9.387
		l24.747,62.293c0,0.853,0,2.56,0,4.267c-22.187,99.84-22.187,208.213,0,320.853c0,1.707,0,2.56,0,4.267l-20.48,61.44
		c-1.707,3.413-0.853,6.827,0.853,9.387c0.853,0.853,3.413,3.413,7.68,2.56l50.347-8.533c3.413-0.853,6.827-0.853,10.24-1.707
		c4.267-0.853,7.68-0.853,11.947-1.707c16.213-2.56,31.573-4.267,46.933-4.267h109.227c14.507,0,30.72,1.707,46.933,4.267
		c3.413,0.853,7.68,0.853,11.947,1.707c3.413,0.853,6.827,0.853,10.24,1.707l50.347,8.533c4.267,0.853,6.827-1.707,7.68-2.56
		c1.707-2.56,2.56-5.973,1.707-8.533l-21.333-62.293c0-0.853,0-2.56,0-4.267c22.187-116.907,22.187-224.427,0-320.853
		c0-1.707,0-3.413,0-5.12l24.747-62.293c1.707-2.56,0.853-5.973-1.707-8.533c-0.853-0.853-3.413-3.413-7.68-2.56L388.336,33.13
		h-0.853c-19.627,5.973-40.96,8.533-62.293,8.533H185.242c-21.333,0-42.667-2.56-63.147-7.68h-0.853l-44.373-17.92
		C76.869,16.063,76.016,16.063,75.162,16.063z M385.776,25.45L385.776,25.45L385.776,25.45z"/>
	<path d="M349.082,229.397H161.349c-5.12,0-8.533-3.413-8.533-8.533V84.33c0-5.12,3.413-8.533,8.533-8.533h187.733
		c5.12,0,8.533,3.413,8.533,8.533v136.533C357.616,225.983,354.202,229.397,349.082,229.397z M169.882,212.33h170.667V92.863
		H169.882V212.33z"/>
	<path d="M280.816,135.53h-51.2c-5.12,0-8.533-3.413-8.533-8.533s3.413-8.533,8.533-8.533h51.2c5.12,0,8.533,3.413,8.533,8.533
		S285.936,135.53,280.816,135.53z"/>
	<path d="M306.416,178.197h-102.4c-5.12,0-8.533-3.413-8.533-8.533c0-5.12,3.413-8.533,8.533-8.533h102.4
		c5.12,0,8.533,3.413,8.533,8.533C314.949,174.783,311.536,178.197,306.416,178.197z"/>
	<path d="M238.149,451.263c-0.853,0-2.56,0-3.413-0.853c-4.267-1.707-5.973-6.827-4.267-11.093
		c6.827-14.507,17.067-82.773-8.533-138.24c-1.707-4.267,0-9.387,4.267-11.093c4.267-1.707,9.387,0,11.093,4.267
		c28.16,60.587,17.067,133.12,8.533,151.893C244.122,449.557,241.562,451.263,238.149,451.263z"/>
	<path d="M246.682,382.997c-0.853,0-2.56,0-3.413-0.853c-4.267-1.707-5.973-6.827-4.267-11.093c0.853-1.707,0.853-2.56,1.707-4.267
		c4.267-10.24,10.24-23.04,27.307-33.28c4.267-2.56,9.387-1.707,11.947,2.56c2.56,4.267,1.707,9.387-2.56,11.947
		c-12.8,7.68-16.213,17.067-20.48,26.453c-0.853,1.707-1.707,3.413-1.707,4.267C252.656,381.29,250.096,382.997,246.682,382.997z"/>
	<path d="M246.682,400.063c-3.413,0-6.827-2.56-7.68-5.973c-3.413-9.387-13.653-17.92-24.747-26.453l-1.707-0.853
		c-3.413-2.56-4.267-8.533-1.707-11.947c2.56-3.413,8.533-4.267,11.947-1.707l1.707,0.853c11.947,9.387,24.747,19.627,29.867,34.133
		c1.707,4.267-0.853,9.387-5.12,11.093C248.389,400.063,247.536,400.063,246.682,400.063z"/>
	<path d="M226.202,369.343h-8.533c-20.48-0.853-39.253-9.387-52.907-24.747c-13.653-15.36-21.333-34.987-20.48-55.467v-8.533h8.533
		c42.667,1.707,75.093,37.547,73.387,80.213V369.343z M161.349,298.517c1.707,12.8,6.827,23.893,15.36,33.28
		c8.533,9.387,19.627,15.36,32.427,17.92C206.576,324.97,186.949,303.637,161.349,298.517z"/>
	<path d="M274.842,348.863c-0.853,0-1.707,0-2.56,0h-8.533v-8.533c1.707-39.253,32.427-69.12,68.267-68.267h8.533v8.533
		C338.842,319.85,309.829,348.863,274.842,348.863z M322.629,289.983c-20.48,3.413-35.84,19.627-40.107,41.813
		C302.149,328.383,318.362,311.317,322.629,289.983z"/>
</g>
</svg>