<?xml version="1.0" encoding="iso-8859-1"?>
<!-- Uploaded to: SVG Repo, www.svgrepo.com, Generator: SVG Repo Mixer Tools -->
<!DOCTYPE svg PUBLIC "-//W3C//DTD SVG 1.1//EN" "http://www.w3.org/Graphics/SVG/1.1/DTD/svg11.dtd">
<svg fill="#000000" version="1.1" id="Capa_1" xmlns="http://www.w3.org/2000/svg" xmlns:xlink="http://www.w3.org/1999/xlink" 
	 width="800px" height="800px" viewBox="0 0 558.506 558.506"
	 xml:space="preserve">
<g>
	<g id="iconos_5_">
		<path d="M216.487,387.729l-11.389-199.32h-32.455l-12.489,363.375h302.71V311.144l-133.875,78.652v-78.652L216.487,387.729z
			 M300.302,494.409h-57.375v-57.375h57.375V494.409z M395.927,437.034v57.375h-66.938v-57.375H395.927z"/>
		<path d="M138.935,73.659c-11.953,32.273,31.078,44.953,31.078,44.953c-16.734,17.452,5.977,50.672,5.977,50.672h29.883
			c0,0,7.172-24.499,14.344-35.821c7.172-11.322,4.781-46.655,4.781-46.655c13.148,21.516,56.179,4.781,56.179,4.781
			c17.93,62.156,98.016,33.469,98.016,33.469c45.422,16.734,83.672-40.641,83.672-40.641c99.211-1.195,95.625-77.695,95.625-77.695
			H3.865C-20.042,104.737,74.78,118.612,74.78,118.612C121.78,133.673,138.935,73.659,138.935,73.659z"/>
	</g>
</g>
</svg>